<svg width="960" height="960" viewBox="0 0 960 960" fill="none" xmlns="http://www.w3.org/2000/svg">
<g clip-path="url(#clip0_46_97)">
<g clip-path="url(#clip1_46_97)">
<path fill-rule="evenodd" clip-rule="evenodd" d="M574.388 823.109C574.279 821.528 574.17 819.945 574.1 818.357C573.382 802.858 572.486 787.375 571.41 771.908C569.266 741.126 566.491 710.393 563.628 679.673C563.277 675.835 562.922 671.99 562.563 668.136L561.769 667.136L473.563 737.424L474.183 738.205C474.145 747.117 473.642 756.026 473.139 764.934C472.311 779.596 471.483 794.257 472.732 808.927C474.33 827.726 480.18 849.114 494.01 862.882C496.688 865.582 499.679 867.953 502.92 869.945C521.05 881.048 544.409 878.867 559.143 864.195C560.775 862.561 562.28 860.805 563.643 858.941C567.782 853.265 571.809 847.081 573.643 840.241C575.178 834.555 574.785 828.855 574.388 823.109ZM557.453 685.504C557.374 684.48 556.48 683.714 555.457 683.793C554.433 683.872 553.667 684.766 553.746 685.789L564.934 830.942C565.013 831.966 565.907 832.732 566.93 832.653C567.954 832.574 568.72 831.68 568.641 830.657L557.453 685.504Z" fill="#171717"/>
<path fill-rule="evenodd" clip-rule="evenodd" d="M667.073 480.201C654.545 472.428 658.61 454.636 669.081 449.828C673 448.043 677.792 448.056 682.947 451.067C684.739 452.09 686.334 453.424 687.656 455.008C698.326 467.759 685.128 491.416 667.073 480.201ZM324.84 601.309C325.8 605.34 325.528 609.566 324.059 613.441C323.846 614.091 323.499 614.689 323.039 615.197C322.58 615.704 322.019 616.11 321.393 616.387C319.596 616.945 317.773 615.606 316.473 614.231C316.123 613.86 315.792 613.479 315.46 613.098C315.393 613.021 315.326 612.945 315.259 612.868L314.082 613.277C313.817 615.276 313.124 617.195 312.05 618.903C311.509 619.753 310.767 620.456 309.89 620.951C309.012 621.446 308.027 621.717 307.019 621.741C303.648 621.605 301.554 618.135 300.166 615.074C296.46 606.842 293.354 598.354 290.872 589.674L290.55 589.761L218.527 643.679L303.409 750.685L362.854 825.633L394.9 800.093L473.557 737.426L561.764 667.138L694.385 561.458L726.753 432L710.309 430.076L702.514 429.171L671.36 425.54L543.137 410.597L531.674 409.259L476.356 450.659L365 534.021L346.851 547.618L345.599 547.568C345.587 548.334 345.36 549.081 344.942 549.724C344.151 550.787 343.163 551.687 342.03 552.376C335.859 556.671 329.688 560.963 323.516 565.251C327.871 576.329 332.217 587.407 336.553 598.487C337.44 600.367 337.933 602.409 338.003 604.487C337.926 606.557 336.773 608.738 334.803 609.345C334.027 609.539 333.217 609.547 332.437 609.368C331.657 609.189 330.931 608.829 330.317 608.316C329.104 607.279 328.077 606.043 327.281 604.66C326.537 603.502 325.806 602.337 325.1 601.16L324.84 601.309ZM534.502 589.933C535.332 596.749 532.37 604.109 526.546 607.728C520.71 611.347 512.209 610.417 507.897 605.076C504.143 600.441 504.153 593.39 507.253 588.297C510.227 583.427 517.415 578.718 523.202 578.21C529.533 577.64 533.82 584.394 534.502 589.933ZM430.47 566.673C432.129 569.654 432.855 573.065 432.552 576.463C432.354 580.243 431.288 584.158 428.636 586.871C424.596 590.998 417.358 591.096 412.848 587.491C408.338 583.886 406.801 577.219 408.759 571.791C411.956 562.918 424.398 556.821 430.47 566.673ZM548.498 421.567C547.478 421.448 546.555 422.178 546.436 423.198C546.317 424.218 547.047 425.141 548.066 425.26L658.31 438.146C659.33 438.265 660.253 437.535 660.373 436.515C660.492 435.496 659.762 434.572 658.742 434.453L548.498 421.567Z" fill="url(#paint0_linear_46_97)"/>
<path fill-rule="evenodd" clip-rule="evenodd" d="M315.372 413.086C330.106 383.178 357.815 359.564 389.762 350.778L389.808 350.989C386.165 381.433 375.136 418.328 362.855 446.433C368.196 446.445 373.537 446.384 378.878 446.284C383.308 446.199 387.737 446.09 392.164 445.981C420.377 445.283 448.518 444.588 476.131 450.361L476.354 450.661L531.672 409.261L543.135 410.599L543.37 408.554C540.078 388.045 536.79 367.548 533.506 347.064C565.738 341.599 595.268 323.667 618.454 300.457C643.437 275.45 661.728 244.557 677.354 212.857C686.413 194.492 694.691 175.631 699.784 155.804C702.461 145.38 704.233 134.437 702.052 123.904C701.503 121.25 700.672 118.662 699.574 116.184C696.265 108.736 690.556 102.379 682.956 99.653C680.237 98.6135 677.288 98.3224 674.418 98.81C673.013 99.0911 671.685 99.6746 670.527 100.52C666.913 103.196 665.83 108.041 664.913 112.441C659.27 139.783 650.47 166.377 638.691 191.689C625.84 219.311 608.962 245.855 584.723 264.332C560.484 282.809 527.918 292.165 498.759 283.317C492.427 281.396 485.996 278.323 481.869 273.329C490.568 289.253 490.63 304.384 488.883 316.714C488.58 319.835 487.702 322.873 486.293 325.674C485.582 327.071 484.573 328.296 483.338 329.261C482.103 330.227 480.671 330.91 479.143 331.263C473.926 332.18 469.218 328.016 466.218 323.654C458.894 312.985 456.478 299.7 455.759 286.763C455.491 281.983 455.431 277.195 455.37 272.406C455.35 270.801 455.329 269.197 455.301 267.592L453.938 267.617C410.649 277.568 368.655 294.979 333.449 322.056C298.243 349.133 270.113 386.284 257.51 428.876C244.907 471.468 248.748 519.463 271.488 557.618C273.818 561.522 276.582 565.525 280.782 567.247C282.475 567.921 284.292 568.226 286.111 568.139C290.549 567.989 295.111 565.934 299.211 563.889C304.416 561.311 310.004 558.288 313.561 553.901C314.976 552.183 316.031 550.198 316.661 548.064C318.494 541.643 315.799 534.972 313.274 528.722C313.117 528.334 312.961 527.948 312.807 527.564C298.11 491.094 298 448.354 315.372 413.086ZM688.558 164.627C688.814 163.633 688.215 162.62 687.221 162.364C686.226 162.108 685.213 162.707 684.957 163.701C671.284 216.843 642.435 264.855 601.933 301.877C601.175 302.57 601.123 303.745 601.815 304.503C602.508 305.261 603.684 305.314 604.442 304.621C645.477 267.112 674.705 218.469 688.558 164.627Z" fill="url(#paint1_linear_46_97)"/>
<path fill-rule="evenodd" clip-rule="evenodd" d="M441.053 206.781L440.929 206.013C456.588 203.556 471.628 198.112 485.231 189.978L485.281 190.065C488.389 205.321 487.639 221.111 483.1 236.003C482.615 237.581 482.089 239.181 481.558 240.793C479.785 246.18 477.964 251.716 477.449 257.103H477.474C490.462 256.504 503.449 255.901 516.435 255.294C512.358 254.039 510.797 249.132 510.289 244.894C509.505 238.279 509.776 231.606 510.047 224.933C510.314 218.335 510.582 211.737 509.83 205.194C507.909 188.477 498.776 172.372 484.401 163.631C470.026 154.89 450.533 154.46 436.679 163.99C426.555 170.938 420.185 182.177 415.885 193.69C413.861 199.111 412.22 204.661 410.581 210.209C408.738 216.444 406.896 222.678 404.509 228.723C399.999 240.148 393.183 251.215 382.699 257.609C406.426 256.051 430.246 256.64 453.867 259.369L455.081 259.307C454.907 255.515 454.622 251.736 454.114 247.981C452.206 233.647 447.199 219.881 441.053 206.781ZM472.544 160.578C471.588 160.204 470.509 160.675 470.135 161.631C469.761 162.588 470.233 163.666 471.189 164.04C482.33 168.402 491.622 176.481 497.488 186.909C503.354 197.338 505.435 209.474 503.377 221.26C503.2 222.272 503.877 223.235 504.888 223.411C505.9 223.588 506.863 222.911 507.04 221.9C509.245 209.268 507.015 196.262 500.729 185.087C494.442 173.911 484.484 165.252 472.544 160.578Z" fill="#171717"/>
<path d="M583.44 880.789C591.953 885.589 600.355 893.751 599.215 903.467C598.409 910.307 592.759 915.884 586.29 918.251C579.821 920.618 572.671 920.296 565.868 919.18C549.758 916.528 534.677 909.737 519.806 903.021C511.466 899.241 502.816 895.251 497.017 888.163C491.218 881.075 487.896 870.17 493.745 863.131L494.005 862.883C496.683 865.584 499.674 867.955 502.915 869.946C521.045 881.046 544.404 878.868 559.138 864.196L559.411 864.469C565.101 872.424 574.926 875.981 583.44 880.789Z" fill="url(#paint2_linear_46_97)"/>
<path d="M534.5 589.933C535.33 596.749 532.369 604.11 526.544 607.728C520.719 611.346 512.206 610.417 507.894 605.076C504.139 600.441 504.152 593.39 507.25 588.297C510.224 583.427 517.411 578.718 523.199 578.21C529.533 577.64 533.82 584.394 534.5 589.933Z" fill="url(#paint3_linear_46_97)"/>
<path d="M476.358 450.658L365 534.02L364.864 533.846C370.49 505.058 375.166 476.114 378.892 447.014L378.88 446.283C411.533 445.663 444.186 443.683 476.133 450.36L476.358 450.658Z" fill="#171717"/>
<path d="M430.47 566.673C432.13 569.654 432.855 573.065 432.552 576.463C432.352 580.243 431.288 584.163 428.636 586.872C424.596 590.999 417.347 591.11 412.848 587.492C408.349 583.874 406.801 577.219 408.759 571.792C411.956 562.918 424.4 556.821 430.47 566.673Z" fill="url(#paint4_linear_46_97)"/>
<path d="M394.906 800.091L395.166 800.413C388.375 823.19 377.321 844.74 359.34 858.978C356.419 861.307 353.328 863.415 350.095 865.286C333.985 875.2 312.919 875.2 298.048 862.808C296.871 861.68 295.768 860.528 294.748 859.363C267.485 828.482 289.209 784.477 302.493 751.415L303.41 750.684L362.855 825.632L394.906 800.091Z" fill="#171717"/>
<path d="M350.1 865.286C353.334 863.415 356.424 861.306 359.345 858.978L359.745 859.461C360.104 881.098 344.602 900.851 325.084 910.219C305.566 919.587 282.844 919.999 261.467 916.599C257.043 915.893 252.086 914.642 249.967 910.7C246.819 904.8 252.235 898.11 257.192 893.611C269.844 882.161 281.828 871.044 294.48 859.594L294.753 859.359C295.769 860.524 296.872 861.677 298.053 862.805C312.918 875.2 333.985 875.2 350.1 865.286Z" fill="url(#paint5_linear_46_97)"/>
<path d="M485.281 190.063C488.388 205.318 487.638 221.107 483.1 235.999C480.993 242.852 478.118 250.099 477.449 257.099C476.926 261.316 477.591 265.595 479.37 269.454C480.05 270.836 480.889 272.134 481.87 273.32C485.997 278.314 492.428 281.387 498.76 283.308C527.919 292.156 560.485 282.8 584.724 264.323C608.963 245.846 625.841 219.302 638.692 191.68C650.471 166.368 659.27 139.774 664.914 112.432C665.831 108.032 666.914 103.187 670.528 100.511C671.686 99.6658 673.013 99.0823 674.419 98.8012C677.289 98.3136 680.238 98.6047 682.957 99.6442C690.557 102.37 696.266 108.727 699.575 116.175C700.673 118.653 701.504 121.241 702.053 123.895C704.234 134.428 702.462 145.371 699.785 155.795C694.692 175.622 686.414 194.483 677.355 212.848C661.729 244.548 643.438 275.441 618.455 300.448C595.269 323.658 565.739 341.59 533.507 347.055C531.016 347.477 528.513 347.824 525.997 348.096" stroke="#171717" stroke-width="3.718" stroke-linecap="round" stroke-linejoin="round"/>
<path d="M488.626 187.883C487.511 188.602 486.371 189.308 485.231 189.977C471.628 198.111 456.589 203.554 440.931 206.012C439.097 206.312 437.263 206.557 435.417 206.756" stroke="#171717" stroke-width="3.718" stroke-linecap="round" stroke-linejoin="round"/>
<path d="M457.263 235.444C458.063 236.512 459.104 237.377 460.301 237.968C461.498 238.558 462.818 238.859 464.153 238.844C465.496 238.751 466.799 238.348 467.96 237.666C469.121 236.985 470.109 236.043 470.845 234.916" stroke="#171717" stroke-width="2.478" stroke-linecap="round" stroke-linejoin="round"/>
<path d="M441.054 206.78C447.2 219.88 452.207 233.646 454.115 247.98C454.623 251.735 454.908 255.514 455.082 259.306C455.206 262.069 455.268 264.82 455.305 267.584C455.417 273.978 455.405 280.373 455.763 286.755C456.482 299.692 458.898 312.977 466.222 323.646C469.222 328.008 473.93 332.172 479.147 331.255C480.674 330.902 482.106 330.219 483.341 329.253C484.577 328.288 485.585 327.063 486.297 325.666C487.705 322.865 488.583 319.827 488.887 316.706C490.634 304.376 490.572 289.245 481.873 273.321C481.861 273.284 481.836 273.259 481.823 273.221" stroke="#171717" stroke-width="3.718" stroke-linecap="round" stroke-linejoin="round"/>
<path d="M477.473 257.105C490.46 256.497 503.447 255.894 516.434 255.296C512.357 254.044 510.796 249.137 510.288 244.896C508.727 231.736 511.341 218.352 509.829 205.196C507.908 188.479 498.763 172.369 484.4 163.633C470.037 154.897 450.532 154.463 436.678 163.992C426.554 170.944 420.184 182.192 415.884 193.692C411.584 205.192 409.006 217.299 404.508 228.725C400.01 240.151 393.182 251.217 382.698 257.611C406.425 256.052 430.245 256.641 453.866 259.371" stroke="#171717" stroke-width="3.718" stroke-linecap="round" stroke-linejoin="round"/>
<path d="M453.941 267.613C410.655 277.564 368.658 294.962 333.452 322.052C298.246 349.142 270.116 386.28 257.513 428.872C244.91 471.464 248.752 519.458 271.491 557.614C273.821 561.514 276.584 565.52 280.785 567.243C282.477 567.918 284.294 568.222 286.114 568.135C290.55 567.986 295.114 565.929 299.214 563.885C304.414 561.307 310.008 558.285 313.564 553.897C314.979 552.18 316.034 550.195 316.664 548.06C318.61 541.244 315.45 534.144 312.81 527.56C298.11 491.09 298.001 448.35 315.375 413.082C330.109 383.182 357.818 359.56 389.765 350.774C395.514 349.189 401.389 348.102 407.325 347.527" stroke="#171717" stroke-width="3.718" stroke-linecap="round" stroke-linejoin="round"/>
<path d="M389.812 350.987C386.169 381.434 375.14 418.326 362.859 446.431" stroke="#171717" stroke-width="3.718" stroke-linecap="round" stroke-linejoin="round"/>
<path d="M362.859 446.432C368.2 446.444 373.541 446.382 378.882 446.283C411.535 445.663 444.188 443.683 476.135 450.36" stroke="#171717" stroke-width="3.718" stroke-linecap="round" stroke-linejoin="round"/>
<path d="M533.475 346.849C533.487 346.923 533.5 346.985 533.512 347.06C536.796 367.544 540.084 388.04 543.376 408.55" stroke="#171717" stroke-width="3.718" stroke-linecap="round" stroke-linejoin="round"/>
<path d="M531.677 409.256L543.139 410.594L671.361 425.539L702.514 429.17L710.309 430.075L726.753 431.996L694.385 561.456L561.765 667.136L473.558 737.424L394.905 800.091L362.859 825.631L303.414 750.684L218.528 643.678" stroke="#171717" stroke-width="3.718" stroke-linecap="round" stroke-linejoin="round"/>
<path d="M346.849 547.614L365.004 534.02L476.359 450.658L531.678 409.256" stroke="#171717" stroke-width="3.718" stroke-linecap="round" stroke-linejoin="round"/>
<path d="M218.528 643.678L290.551 589.76" stroke="#171717" stroke-width="3.718" stroke-linecap="round" stroke-linejoin="round"/>
<path d="M669.081 449.828C658.61 454.636 654.545 472.428 667.073 480.201C685.128 491.416 698.326 467.759 687.656 455.008C686.333 453.424 684.739 452.09 682.947 451.067C677.792 448.056 673 448.043 669.081 449.828Z" stroke="#171717" stroke-width="3.718" stroke-linecap="round" stroke-linejoin="round"/>
<path d="M422.044 715.415L503.695 489.729" stroke="#171717" stroke-width="7.435" stroke-linecap="round" stroke-linejoin="round"/>
<path d="M408.759 571.791C406.801 577.219 408.338 583.886 412.848 587.491C417.358 591.096 424.596 590.998 428.636 586.871C431.288 584.157 432.354 580.241 432.552 576.462C432.855 573.063 432.129 569.653 430.47 566.672C424.4 556.821 411.956 562.918 408.759 571.791Z" stroke="#171717" stroke-width="7.435" stroke-linecap="round" stroke-linejoin="round"/>
<path d="M507.252 588.299C504.152 593.392 504.142 600.443 507.896 605.078C512.209 610.419 520.709 611.349 526.546 607.731C532.383 604.113 535.332 596.751 534.502 589.935C533.82 584.396 529.533 577.643 523.202 578.213C517.413 578.718 510.226 583.426 507.252 588.299Z" stroke="#171717" stroke-width="7.435" stroke-linecap="round" stroke-linejoin="round"/>
<path d="M472.653 223.051C473.643 223.056 474.624 222.866 475.54 222.493C475.999 222.299 476.391 221.975 476.668 221.561C476.945 221.147 477.096 220.662 477.101 220.163C477.011 219.563 476.777 218.993 476.419 218.503L472.7 212.479" stroke="#171717" stroke-width="2.478" stroke-linecap="round" stroke-linejoin="round"/>
<path d="M454.127 209.173C454.461 208.648 454.9 208.197 455.416 207.849C455.932 207.502 456.515 207.265 457.127 207.153C458.349 206.936 459.596 206.885 460.832 207.004" stroke="#171717" stroke-width="2.478" stroke-linecap="round" stroke-linejoin="round"/>
<path d="M471.835 203.138C472.149 202.521 472.588 201.977 473.124 201.54C473.66 201.102 474.281 200.781 474.948 200.597C475.614 200.413 476.312 200.369 476.997 200.47C477.681 200.57 478.337 200.812 478.923 201.18" stroke="#171717" stroke-width="2.478" stroke-linecap="round" stroke-linejoin="round"/>
<path d="M674.335 98.4737C679.396 83.6486 688.32 70.4422 700.188 60.2171C712.056 49.9919 726.436 43.1184 741.847 40.3057C744.623 39.7977 748.192 39.7857 749.468 42.3137C750.459 44.2967 749.268 46.7877 747.46 48.0517C746.693 48.5721 745.85 48.9692 744.96 49.2287C743.728 49.5945 742.474 49.8801 741.205 50.0837C732.077 51.8645 723.366 55.3497 715.529 60.3567" stroke="#171717" stroke-width="3.718" stroke-linecap="round" stroke-linejoin="round"/>
<path d="M745.205 50.0207C748.266 49.7607 751.475 49.5127 754.288 50.7517C757.101 51.9907 759.294 55.2007 758.288 58.1007C757.923 58.9773 757.368 59.762 756.663 60.3984C755.958 61.0347 755.121 61.5068 754.211 61.7807C752.391 62.3064 750.515 62.6103 748.622 62.6857C736.737 63.8091 725.341 67.9764 715.535 74.7857" stroke="#171717" stroke-width="3.718" stroke-linecap="round" stroke-linejoin="round"/>
<path d="M722.986 71.1241C723.321 70.9131 723.655 70.7151 724.002 70.5291C726.767 69.136 729.847 68.4868 732.939 68.6455C736.031 68.8042 739.028 69.7653 741.636 71.4341C744.364 73.2794 746.62 75.7401 748.221 78.6178C749.823 81.4955 750.726 84.7094 750.856 88.0001C751.025 94.6372 748.643 101.086 744.2 106.02C743.269 107.194 742.069 108.125 740.7 108.734C740.197 108.925 739.664 109.029 739.126 109.044C738.648 109.07 738.17 108.999 737.721 108.835C737.271 108.671 736.86 108.418 736.511 108.09C736.417 107.996 736.331 107.896 736.251 107.79C735.123 106.328 735.47 104.11 735.941 102.263C736.982 98.2361 738.196 93.9851 737.007 90.0071C735.235 84.0961 728.085 80.7621 722.112 82.3241C716.139 83.8861 711.74 89.4991 710.575 95.5711C709.646 100.342 710.875 105.98 714.987 108.571C718.487 110.777 723.079 110.219 726.921 108.707C729.61 107.641 732.77 106.179 735.187 107.778C735.343 107.884 735.492 108 735.633 108.125C736.27 108.777 736.725 109.585 736.951 110.468C737.177 111.351 737.167 112.278 736.922 113.156C736.305 115.087 735.132 116.794 733.551 118.063C731.308 120.056 728.687 121.576 725.843 122.534C723 123.492 719.993 123.868 717.001 123.639C714.009 123.41 711.094 122.581 708.43 121.201C705.765 119.822 703.406 117.92 701.492 115.609" stroke="#171717" stroke-width="3.718" stroke-linecap="round" stroke-linejoin="round"/>
<path d="M739.232 110.778C751.55 133.765 747.944 164.287 730.595 183.778C720.657 194.931 707.095 202.341 696.963 213.308C680.271 231.351 674.608 258.861 682.824 282.035C690.842 304.651 710.235 321.635 719.257 343.884C729.939 370.192 724.648 404.506 710.421 429.084" stroke="#171717" stroke-width="3.718" stroke-linecap="round" stroke-linejoin="round"/>
<path d="M686.778 455.714C685.427 459.332 680.805 461.014 677.112 459.853C673.419 458.692 670.767 455.293 669.565 451.612C669.373 451.026 669.212 450.43 669.082 449.828C668.491 446.625 668.345 443.356 668.648 440.113C668.801 435.145 669.716 430.23 671.362 425.54C672.13 423.525 673.154 421.617 674.41 419.864C678.586 414.114 686.616 410.607 693.085 413.606C698.463 416.097 701.239 422.132 702.664 427.882" stroke="#171717" stroke-width="3.718" stroke-linecap="round" stroke-linejoin="round"/>
<path d="M775.442 96.6766L806.931 68.6826" stroke="#171717" stroke-width="3.718" stroke-linecap="round" stroke-linejoin="round"/>
<path d="M785.356 122.341L879.239 142.168" stroke="#171717" stroke-width="3.718" stroke-linecap="round" stroke-linejoin="round"/>
<path d="M774.277 153.829L785.938 182.406" stroke="#171717" stroke-width="3.718" stroke-linecap="round" stroke-linejoin="round"/>
<path d="M302.501 751.415C289.217 784.477 267.493 828.482 294.756 859.363C295.772 860.528 296.875 861.68 298.056 862.808C312.927 875.2 333.993 875.2 350.103 865.286C353.336 863.415 356.426 861.306 359.348 858.978C377.329 844.739 388.383 823.189 395.174 800.413" stroke="#171717" stroke-width="3.718" stroke-linecap="round" stroke-linejoin="round"/>
<path d="M378.894 447.015C375.161 476.099 370.485 505.043 364.866 533.847" stroke="#171717" stroke-width="3.718" stroke-linecap="round" stroke-linejoin="round"/>
<path d="M474.177 738.205C474.077 761.787 470.72 785.345 472.727 808.927C474.327 827.727 480.175 849.115 494.004 862.882C496.682 865.582 499.674 867.954 502.914 869.945C521.044 881.045 544.403 878.867 559.137 864.195C560.77 862.561 562.274 860.805 563.637 858.941C567.776 853.265 571.803 847.082 573.637 840.241C575.595 832.992 574.418 825.717 574.095 818.357C573.401 802.854 572.505 787.372 571.406 771.911C569.262 741.129 566.486 710.396 563.624 679.676C563.278 675.834 562.922 671.988 562.558 668.139" stroke="#171717" stroke-width="3.718" stroke-linecap="round" stroke-linejoin="round"/>
<path d="M294.479 859.6C281.827 871.05 269.843 882.166 257.191 893.616C252.234 898.116 246.819 904.806 249.966 910.705C252.085 914.646 257.042 915.897 261.466 916.605C282.842 920 305.566 919.579 325.075 910.223C344.584 900.867 360.095 881.102 359.736 859.465" stroke="#171717" stroke-width="3.718" stroke-linecap="round" stroke-linejoin="round"/>
<path d="M493.744 863.13C487.895 870.169 491.216 881.086 497.016 888.162C502.816 895.238 511.465 899.241 519.805 903.02C534.676 909.737 549.757 916.527 565.867 919.179C572.667 920.294 579.82 920.629 586.289 918.25C592.758 915.871 598.408 910.307 599.214 903.466C600.354 893.751 591.952 885.584 583.439 880.788C574.926 875.992 565.099 872.423 559.411 864.468" stroke="#171717" stroke-width="3.718" stroke-linecap="round" stroke-linejoin="round"/>
<path d="M314.8 554.131C322.866 551.231 330.933 548.34 339 545.457C341.082 544.701 343.858 544.157 345.122 545.977C345.437 546.446 345.601 546.999 345.593 547.563C345.581 548.33 345.353 549.077 344.936 549.719C344.145 550.783 343.156 551.683 342.024 552.371C335.853 556.659 329.682 560.951 323.51 565.246C327.86 576.326 332.205 587.404 336.547 598.482C337.433 600.363 337.927 602.405 337.997 604.482C337.923 606.552 336.77 608.732 334.797 609.34C334.021 609.535 333.21 609.543 332.43 609.364C331.651 609.185 330.925 608.824 330.311 608.311C329.097 607.275 328.07 606.039 327.275 604.655C326.531 603.503 325.8 602.338 325.094 601.155C321.037 594.41 317.603 587.309 314.833 579.94" stroke="#171717" stroke-width="3.718" stroke-linecap="round" stroke-linejoin="round"/>
<path d="M304.728 587.689C306.971 596.589 309.428 605.881 315.261 612.87C315.661 613.328 316.054 613.787 316.475 614.233C317.775 615.608 319.598 616.947 321.395 616.389C322.02 616.112 322.581 615.706 323.04 615.198C323.499 614.69 323.846 614.091 324.059 613.44C325.527 609.566 325.799 605.339 324.84 601.308" stroke="#171717" stroke-width="3.718" stroke-linecap="round" stroke-linejoin="round"/>
<path d="M286.127 568.445C288.751 584.535 293.471 600.212 300.167 615.077C301.555 618.138 303.649 621.608 307.02 621.744C308.027 621.72 309.013 621.449 309.89 620.954C310.768 620.459 311.51 619.756 312.051 618.906C313.125 617.198 313.818 615.279 314.083 613.28" stroke="#171717" stroke-width="3.718" stroke-linecap="round" stroke-linejoin="round"/>
<path d="M455.533 267.755C455.897 273.809 456.361 280.177 459.7 285.241C463.039 290.305 470.3 293.321 475.37 289.992C478.145 288.17 479.67 284.868 480.101 281.576C480.377 277.851 480.178 274.106 479.508 270.431" stroke="#171717" stroke-width="3.718" stroke-linecap="round" stroke-linejoin="round"/>
<path d="M456.601 291.876C458.069 296.016 462.394 298.776 466.78 299.005C468.981 299.042 471.167 298.632 473.205 297.799C475.243 296.967 477.091 295.729 478.637 294.162C481.713 291.001 484.013 287.169 485.358 282.968" stroke="#171717" stroke-width="3.718" stroke-linecap="round" stroke-linejoin="round"/>
<path d="M446.208 269.8C441.827 285.726 442.931 302.663 449.344 317.885C451.626 323.618 455.017 328.845 459.322 333.267C463.669 337.698 469.388 340.527 475.548 341.294C481.671 341.894 488.17 339.725 492.166 335.048C496.232 330.288 497.306 323.715 497.877 317.481C498.879 306.545 498.828 295.539 497.725 284.613" stroke="#171717" stroke-width="3.718" stroke-linecap="round" stroke-linejoin="round"/>
<path d="M445.071 280.9L454.692 278.709" stroke="#171717" stroke-width="3.718" stroke-linecap="round" stroke-linejoin="round"/>
<path d="M444.2 292.307L454.942 290.107L454.554 290.275" stroke="#171717" stroke-width="3.718" stroke-linecap="round" stroke-linejoin="round"/>
<path d="M447.814 309.018L456.607 304.589" stroke="#171717" stroke-width="3.718" stroke-linecap="round" stroke-linejoin="round"/>
<path d="M453.363 323.342L460.549 317.857" stroke="#171717" stroke-width="3.718" stroke-linecap="round" stroke-linejoin="round"/>
<path d="M460.979 333.444L466.95 326.732" stroke="#171717" stroke-width="3.718" stroke-linecap="round" stroke-linejoin="round"/>
<path d="M472.308 339.885C473.004 337.301 473.7 334.717 474.397 332.132" stroke="#171717" stroke-width="3.718" stroke-linecap="round" stroke-linejoin="round"/>
<path d="M485.843 338.519C485.135 336 484.426 333.48 483.718 330.961" stroke="#171717" stroke-width="3.718" stroke-linecap="round" stroke-linejoin="round"/>
<path d="M489.254 321.938L496.396 322.974" stroke="#171717" stroke-width="3.718" stroke-linecap="round" stroke-linejoin="round"/>
<path d="M490.715 310.239L497.272 310.487" stroke="#171717" stroke-width="3.718" stroke-linecap="round" stroke-linejoin="round"/>
<path d="M490.132 298.168L496.401 297.297" stroke="#171717" stroke-width="3.718" stroke-linecap="round" stroke-linejoin="round"/>
<path d="M488.522 287.457C491.578 287.186 494.647 287.12 497.711 287.257" stroke="#171717" stroke-width="3.718" stroke-linecap="round" stroke-linejoin="round"/>
<path d="M267.288 550.062C284.091 546.782 299.627 538.825 312.108 527.106" stroke="#171717" stroke-width="3.718" stroke-linecap="round" stroke-linejoin="round"/>
<path d="M313.314 552.9C311.428 546.118 309.542 539.336 307.655 532.555" stroke="#171717" stroke-width="3.718" stroke-linecap="round" stroke-linejoin="round"/>
<path d="M305.254 559.237L299.824 537.414" stroke="#171717" stroke-width="3.718" stroke-linecap="round" stroke-linejoin="round"/>
<path d="M298.444 564.05L292.054 542.85" stroke="#171717" stroke-width="3.718" stroke-linecap="round" stroke-linejoin="round"/>
<path d="M290.244 566.709L282.471 546.636" stroke="#171717" stroke-width="3.718" stroke-linecap="round" stroke-linejoin="round"/>
<path d="M283.25 567.144C280.382 561.438 277.956 555.521 275.993 549.444" stroke="#171717" stroke-width="3.718" stroke-linecap="round" stroke-linejoin="round"/>
<path d="M700.54 152.308C691.784 138.579 679.195 127.718 664.331 121.068" stroke="#171717" stroke-width="3.718" stroke-linecap="round" stroke-linejoin="round"/>
<path d="M695.991 144.5L701.946 129.329" stroke="#171717" stroke-width="3.718" stroke-linecap="round" stroke-linejoin="round"/>
<path d="M690.188 138.1C693.074 131.527 695.961 124.954 698.847 118.38" stroke="#171717" stroke-width="3.718" stroke-linecap="round" stroke-linejoin="round"/>
<path d="M683.382 132.582L694.668 109.8" stroke="#171717" stroke-width="3.718" stroke-linecap="round" stroke-linejoin="round"/>
<path d="M676.041 126.5L686.619 103.078" stroke="#171717" stroke-width="3.718" stroke-linecap="round" stroke-linejoin="round"/>
<path d="M669.146 122.243L678.047 99.623" stroke="#171717" stroke-width="3.718" stroke-linecap="round" stroke-linejoin="round"/>
<path d="M697.22 160.043C687.704 147.732 676.134 137.156 663.021 128.781" stroke="#171717" stroke-width="3.718" stroke-linecap="round" stroke-linejoin="round"/>
<path d="M264.365 542.092C279.623 536.606 294.008 528.944 307.074 519.344" stroke="#171717" stroke-width="3.718" stroke-linecap="round" stroke-linejoin="round"/>
<path d="M373.138 423.6C417.41 423.407 461.655 424.7 505.873 427.481" stroke="#171717" stroke-width="3.718" stroke-linecap="round" stroke-linejoin="round"/>
<path d="M484.433 442.926C485.31 437.897 486.187 432.868 487.065 427.838" stroke="#171717" stroke-width="3.718" stroke-linecap="round" stroke-linejoin="round"/>
<path d="M471.641 448.187C472.366 441.327 473.091 434.467 473.815 427.606" stroke="#171717" stroke-width="3.718" stroke-linecap="round" stroke-linejoin="round"/>
<path d="M456.787 445.782C457.354 439.515 457.921 433.245 458.487 426.971" stroke="#171717" stroke-width="3.718" stroke-linecap="round" stroke-linejoin="round"/>
<path d="M443.332 444.9C443.932 438.559 444.529 432.218 445.122 425.878" stroke="#171717" stroke-width="3.718" stroke-linecap="round" stroke-linejoin="round"/>
<path d="M429.107 444.457C429.887 438.217 430.339 431.94 430.461 425.652" stroke="#171717" stroke-width="3.718" stroke-linecap="round" stroke-linejoin="round"/>
<path d="M415.233 444.669L416.877 425.434" stroke="#171717" stroke-width="3.718" stroke-linecap="round" stroke-linejoin="round"/>
<path d="M399.463 444.88L401.743 425.647" stroke="#171717" stroke-width="3.718" stroke-linecap="round" stroke-linejoin="round"/>
<path d="M383.9 445.339C384.516 438.702 385.13 432.065 385.744 425.427" stroke="#171717" stroke-width="3.718" stroke-linecap="round" stroke-linejoin="round"/>
<path d="M513.288 400.05L520.673 388.65" stroke="#171717" stroke-width="3.718" stroke-linecap="round" stroke-linejoin="round"/>
<path d="M495.381 379.509L484.488 371.579" stroke="#171717" stroke-width="3.718" stroke-linecap="round" stroke-linejoin="round"/>
<path d="M507.68 348.914C509.1 345.129 511.339 341.704 514.237 338.886" stroke="#171717" stroke-width="3.718" stroke-linecap="round" stroke-linejoin="round"/>
<path d="M539.368 322.868L528.298 313.333" stroke="#171717" stroke-width="3.718" stroke-linecap="round" stroke-linejoin="round"/>
<path d="M576.183 316.91L582.292 304.657" stroke="#171717" stroke-width="3.718" stroke-linecap="round" stroke-linejoin="round"/>
<path d="M559.3 301.957L547.5 296.257" stroke="#171717" stroke-width="3.718" stroke-linecap="round" stroke-linejoin="round"/>
<path d="M588.085 282.47L599.447 286" stroke="#171717" stroke-width="3.718" stroke-linecap="round" stroke-linejoin="round"/>
<path d="M612.588 264.918C613.171 261.274 613.754 257.629 614.336 253.984" stroke="#171717" stroke-width="3.718" stroke-linecap="round" stroke-linejoin="round"/>
<path d="M634.9 252.673C637.816 250.049 640.732 247.424 643.647 244.8" stroke="#171717" stroke-width="3.718" stroke-linecap="round" stroke-linejoin="round"/>
<path d="M643.648 225.994C641.898 222.562 640.716 218.869 640.148 215.06" stroke="#171717" stroke-width="3.718" stroke-linecap="round" stroke-linejoin="round"/>
<path d="M662.88 201.906L671.256 198.573" stroke="#171717" stroke-width="3.718" stroke-linecap="round" stroke-linejoin="round"/>
<path d="M665.881 176.983C667.044 173.629 668.208 170.275 669.371 166.92" stroke="#171717" stroke-width="3.718" stroke-linecap="round" stroke-linejoin="round"/>
<path d="M455.9 362.38L462.476 351.893" stroke="#171717" stroke-width="3.718" stroke-linecap="round" stroke-linejoin="round"/>
<path d="M464.373 397.044L456.144 406.735" stroke="#171717" stroke-width="3.718" stroke-linecap="round" stroke-linejoin="round"/>
<path d="M429.606 389.331C427.206 386.624 424.803 383.917 422.396 381.209" stroke="#171717" stroke-width="3.718" stroke-linecap="round" stroke-linejoin="round"/>
<path d="M396.872 406.547C399.21 403.635 401.548 400.723 403.885 397.812" stroke="#171717" stroke-width="3.718" stroke-linecap="round" stroke-linejoin="round"/>
<path d="M397.409 365.515L403.095 359.392" stroke="#171717" stroke-width="3.718" stroke-linecap="round" stroke-linejoin="round"/>
<path d="M429.817 342.742L423.747 333.523" stroke="#171717" stroke-width="3.718" stroke-linecap="round" stroke-linejoin="round"/>
<path d="M410 304.652L417 295.033" stroke="#171717" stroke-width="3.718" stroke-linecap="round" stroke-linejoin="round"/>
<path d="M383.852 333.586C382.007 330.689 379.632 328.167 376.852 326.151" stroke="#171717" stroke-width="3.718" stroke-linecap="round" stroke-linejoin="round"/>
<path d="M340.545 336.644L346.663 327.456" stroke="#171717" stroke-width="3.718" stroke-linecap="round" stroke-linejoin="round"/>
<path d="M340.501 361.229L331.39 356.282" stroke="#171717" stroke-width="3.718" stroke-linecap="round" stroke-linejoin="round"/>
<path d="M302.938 382.572C303.686 378.748 305.013 375.061 306.873 371.638" stroke="#171717" stroke-width="3.718" stroke-linecap="round" stroke-linejoin="round"/>
<path d="M301.919 415.257C298.46 413.69 295.146 411.818 292.019 409.665" stroke="#171717" stroke-width="3.718" stroke-linecap="round" stroke-linejoin="round"/>
<path d="M271.8 451.262L268.713 439.462" stroke="#171717" stroke-width="3.718" stroke-linecap="round" stroke-linejoin="round"/>
<path d="M272.7 480.457L280.555 475.182" stroke="#171717" stroke-width="3.718" stroke-linecap="round" stroke-linejoin="round"/>
<path d="M290.691 448.177C290.983 444.385 291.275 440.595 291.566 436.805" stroke="#171717" stroke-width="3.718" stroke-linecap="round" stroke-linejoin="round"/>
<path d="M282.628 504.6L282.82 514.218" stroke="#171717" stroke-width="3.718" stroke-linecap="round" stroke-linejoin="round"/>
<path d="M268.264 255.969L297.443 200" stroke="#171717" stroke-width="3.718" stroke-linecap="round" stroke-linejoin="round"/>
<path d="M292.034 228.619C291.209 229.664 290.765 230.958 290.775 232.289C290.784 233.621 291.247 234.909 292.086 235.942C292.988 236.92 294.221 237.526 295.546 237.643C296.871 237.76 298.192 237.379 299.25 236.575C299.908 235.984 300.423 235.253 300.759 234.436C301.094 233.618 301.241 232.736 301.188 231.854C300.974 226.583 295.594 224.245 292.034 228.619Z" stroke="#171717" stroke-width="3.718" stroke-linecap="round" stroke-linejoin="round"/>
<path d="M261.928 217.9C261.333 219.356 261.33 220.987 261.919 222.446C262.508 223.905 263.643 225.076 265.083 225.711C266.522 226.346 268.152 226.394 269.627 225.845C271.101 225.296 272.303 224.194 272.977 222.772C276.445 215.465 264.982 210.407 261.928 217.9Z" stroke="#171717" stroke-width="3.718" stroke-linecap="round" stroke-linejoin="round"/>
<path d="M211.631 393.844C187.1 388.094 159.438 401.778 149.122 424.765C138.806 447.752 146.971 477.513 167.573 492.018C173.956 496.512 184.329 498.811 188.381 492.139C192.487 485.377 185.462 477.204 178.468 473.507C169.73 468.887 159.594 466.33 149.868 468.107C140.142 469.884 131.033 476.519 127.916 485.899C122.885 501.041 133.862 516.274 142.965 529.378C159.855 553.691 172.482 581.934 173.252 611.528C173.5 621.064 172.452 630.864 168.191 639.401C163.93 647.938 156.058 655.056 146.638 656.559C137.218 658.062 126.638 652.836 123.66 643.774C122.121 639.091 122.941 633.312 126.801 630.247C130.661 627.182 137.582 628.505 138.981 633.232" stroke="#171717" stroke-width="3.718" stroke-linecap="round" stroke-linejoin="round"/>
<path d="M763.782 305.399C789.71 333.625 808.158 367.894 817.441 405.079C819.819 414.656 821.582 424.561 820.466 434.366C819.35 444.171 815.032 453.955 807.156 459.901C800.428 464.98 790.362 466.611 783.679 461.473C776.996 456.335 777.345 443.697 785.254 440.78C790.098 438.994 795.699 441.321 799.193 445.122C802.687 448.923 804.51 453.931 806.15 458.822C810.642 472.238 814.05 488.15 805.75 499.606C797.581 510.88 781.811 512.748 769.615 519.464C755.615 527.176 745.915 542.99 747.246 558.923C748.577 574.856 762.018 589.449 777.978 590.393C781.521 590.603 785.288 590.118 788.119 587.976C790.95 585.834 792.456 581.676 790.749 578.569C789.042 575.462 783.736 574.903 782.043 578.022" stroke="#171717" stroke-width="3.718" stroke-linecap="round" stroke-linejoin="round"/>
<path d="M727.727 306.089L737.365 288.603" stroke="#171717" stroke-width="3.718" stroke-linecap="round" stroke-linejoin="round"/>
<path d="M738.994 303.408C735.151 298.348 730.013 294.419 724.123 292.036" stroke="#171717" stroke-width="3.718" stroke-linecap="round" stroke-linejoin="round"/>
<path d="M526.726 140.415L543.408 136.306" stroke="#171717" stroke-width="3.718" stroke-linecap="round" stroke-linejoin="round"/>
<path d="M538.011 148.307C536.537 142.189 535.063 136.069 533.588 129.949" stroke="#171717" stroke-width="3.718" stroke-linecap="round" stroke-linejoin="round"/>
<path d="M494.99 122.211L480.979 117" stroke="#171717" stroke-width="3.718" stroke-linecap="round" stroke-linejoin="round"/>
<path d="M483.474 126.673L488.605 113.506" stroke="#171717" stroke-width="3.718" stroke-linecap="round" stroke-linejoin="round"/>
<path d="M384.725 205.436L368.105 194.064" stroke="#171717" stroke-width="3.718" stroke-linecap="round" stroke-linejoin="round"/>
<path d="M369.855 208.061C372.771 203.687 375.687 199.314 378.602 194.94" stroke="#171717" stroke-width="3.718" stroke-linecap="round" stroke-linejoin="round"/>
<path d="M192.866 533.756L182.366 525.009" stroke="#171717" stroke-width="3.718" stroke-linecap="round" stroke-linejoin="round"/>
<path d="M181.409 536.299L191.018 525.791" stroke="#171717" stroke-width="3.718" stroke-linecap="round" stroke-linejoin="round"/>
<path d="M233.396 749.525L213.277 792.387" stroke="#171717" stroke-width="3.718" stroke-linecap="round" stroke-linejoin="round"/>
<path d="M621.779 694.416L636.65 776.642" stroke="#171717" stroke-width="3.718" stroke-linecap="round" stroke-linejoin="round"/>
<path d="M641.898 670.798L757.364 772.268" stroke="#171717" stroke-width="3.718" stroke-linecap="round" stroke-linejoin="round"/>
<path d="M674.265 641.932L749.492 653.303" stroke="#171717" stroke-width="3.718" stroke-linecap="round" stroke-linejoin="round"/>
<path d="M208.028 721.533L88.1895 791.512" stroke="#171717" stroke-width="3.718" stroke-linecap="round" stroke-linejoin="round"/>
<path d="M194.032 690.042L154.669 688.293" stroke="#171717" stroke-width="3.718" stroke-linecap="round" stroke-linejoin="round"/>
<path d="M279.864 874.125C290.484 876.456 300.958 879.409 311.232 882.966" stroke="#171717" stroke-width="3.718" stroke-linecap="round" stroke-linejoin="round"/>
<path d="M267.644 885.188C276.735 888.56 285.724 892.194 294.61 896.088" stroke="#171717" stroke-width="3.718" stroke-linecap="round" stroke-linejoin="round"/>
<path d="M584.892 883.46C576.693 887.092 568.781 891.342 561.227 896.173" stroke="#171717" stroke-width="3.718" stroke-linecap="round" stroke-linejoin="round"/>
<path d="M568.852 874.6C560.451 878.133 552.523 882.699 545.252 888.194" stroke="#171717" stroke-width="3.718" stroke-linecap="round" stroke-linejoin="round"/>
<path d="M546.83 202.884L546.615 209.512C546.608 209.712 546.541 209.905 546.421 210.066C546.301 210.226 546.135 210.346 545.945 210.409C545.755 210.473 545.551 210.476 545.359 210.419C545.167 210.363 544.997 210.248 544.872 210.092L540.726 204.916C540.605 204.765 540.442 204.653 540.258 204.595C540.073 204.537 539.876 204.534 539.69 204.588L533.32 206.432C533.127 206.488 532.923 206.483 532.733 206.419C532.543 206.355 532.378 206.234 532.259 206.073C532.14 205.912 532.074 205.719 532.068 205.518C532.063 205.318 532.119 205.121 532.229 204.954L535.87 199.412C535.976 199.25 536.032 199.061 536.03 198.867C536.029 198.674 535.97 198.485 535.862 198.325L532.14 192.837C532.027 192.671 531.968 192.475 531.971 192.275C531.973 192.075 532.037 191.88 532.154 191.718C532.27 191.555 532.434 191.432 532.622 191.365C532.811 191.298 533.016 191.29 533.209 191.343L539.609 193.093C539.795 193.144 539.993 193.139 540.177 193.077C540.36 193.016 540.522 192.902 540.641 192.749L544.711 187.513C544.834 187.355 545.002 187.238 545.193 187.179C545.384 187.12 545.589 187.12 545.78 187.181C545.97 187.241 546.138 187.358 546.26 187.517C546.382 187.676 546.452 187.868 546.462 188.068L546.774 194.692C546.783 194.885 546.849 195.072 546.964 195.228C547.079 195.383 547.238 195.501 547.42 195.567L553.657 197.82C553.845 197.888 554.008 198.012 554.124 198.175C554.239 198.339 554.302 198.534 554.303 198.734C554.305 198.934 554.245 199.13 554.132 199.295C554.018 199.46 553.857 199.586 553.67 199.657L547.47 202.001C547.287 202.068 547.129 202.188 547.015 202.345C546.901 202.502 546.837 202.69 546.83 202.884V202.884Z" fill="#171717"/>
<path d="M640.056 376.628L643.889 382.039C644.005 382.202 644.068 382.397 644.069 382.597C644.071 382.798 644.011 382.994 643.898 383.159C643.785 383.324 643.624 383.451 643.437 383.521C643.249 383.592 643.045 383.604 642.851 383.555L636.42 381.936C636.232 381.888 636.035 381.898 635.852 381.963C635.67 382.028 635.511 382.145 635.396 382.301L631.434 387.619C631.314 387.779 631.148 387.899 630.958 387.963C630.769 388.026 630.564 388.03 630.372 387.973C630.18 387.917 630.01 387.803 629.885 387.646C629.759 387.49 629.685 387.3 629.672 387.1L629.225 380.484C629.212 380.291 629.142 380.106 629.024 379.952C628.906 379.799 628.745 379.684 628.562 379.622L622.28 377.498C622.09 377.434 621.925 377.313 621.806 377.152C621.687 376.991 621.62 376.798 621.615 376.598C621.609 376.398 621.665 376.201 621.775 376.033C621.885 375.866 622.043 375.736 622.229 375.662L628.383 373.192C628.563 373.12 628.717 372.996 628.827 372.835C628.936 372.675 628.995 372.486 628.997 372.292L629.076 365.661C629.078 365.461 629.142 365.266 629.259 365.104C629.375 364.941 629.539 364.818 629.727 364.751C629.915 364.684 630.12 364.676 630.313 364.729C630.506 364.781 630.678 364.892 630.807 365.045L635.058 370.135C635.182 370.283 635.347 370.392 635.533 370.447C635.718 370.501 635.916 370.5 636.101 370.442L642.432 368.468C642.623 368.409 642.827 368.409 643.018 368.47C643.209 368.53 643.376 368.647 643.499 368.806C643.621 368.965 643.691 369.157 643.701 369.356C643.711 369.556 643.659 369.754 643.553 369.924L640.026 375.54C639.922 375.704 639.87 375.895 639.876 376.088C639.881 376.282 639.944 376.47 640.056 376.628Z" fill="#171717"/>
<path d="M796.988 639.3L850.227 605.389" stroke="#171717" stroke-width="3.718" stroke-linecap="round" stroke-linejoin="round"/>
<path d="M831.243 627.478C830.006 627.971 828.974 628.87 828.317 630.028C827.66 631.186 827.418 632.533 827.629 633.848C827.921 635.145 828.687 636.287 829.776 637.05C830.865 637.814 832.2 638.144 833.519 637.976C834.383 637.792 835.195 637.417 835.894 636.876C836.593 636.335 837.161 635.644 837.556 634.854C840 630.18 836.513 625.467 831.243 627.478Z" stroke="#171717" stroke-width="3.718" stroke-linecap="round" stroke-linejoin="round"/>
<path d="M810.52 603.149C809.28 604.114 808.464 605.525 808.247 607.081C808.03 608.638 808.429 610.218 809.357 611.485C810.286 612.753 811.673 613.609 813.223 613.871C814.772 614.133 816.363 613.781 817.657 612.889C824.31 608.295 816.907 598.188 810.52 603.149Z" stroke="#171717" stroke-width="3.718" stroke-linecap="round" stroke-linejoin="round"/>
<path d="M141.076 586.055L95.668 542.209" stroke="#171717" stroke-width="3.718" stroke-linecap="round" stroke-linejoin="round"/>
<path d="M121.584 555.509C122.352 556.596 123.468 557.39 124.747 557.758C126.027 558.126 127.393 558.047 128.622 557.535C129.815 556.948 130.747 555.937 131.235 554.699C131.722 553.462 131.731 552.087 131.26 550.844C130.881 550.046 130.326 549.343 129.637 548.789C128.948 548.235 128.143 547.844 127.282 547.644C122.165 546.358 118.4 550.854 121.584 555.509Z" stroke="#171717" stroke-width="3.718" stroke-linecap="round" stroke-linejoin="round"/>
<path d="M102.768 581.341C103.997 582.311 105.555 582.766 107.114 582.61C108.672 582.453 110.109 581.698 111.121 580.502C112.133 579.307 112.641 577.765 112.537 576.202C112.434 574.639 111.728 573.178 110.568 572.126C104.551 566.731 96.452 576.29 102.768 581.341Z" stroke="#171717" stroke-width="3.718" stroke-linecap="round" stroke-linejoin="round"/>
<path d="M98.4072 500.942L102.24 506.353C102.356 506.516 102.419 506.711 102.421 506.911C102.423 507.112 102.363 507.307 102.25 507.473C102.137 507.638 101.976 507.765 101.788 507.835C101.601 507.906 101.396 507.918 101.202 507.869L94.7712 506.25C94.5836 506.202 94.3861 506.212 94.2038 506.277C94.0215 506.342 93.8626 506.459 93.7472 506.615L89.7852 511.933C89.6657 512.093 89.4998 512.213 89.31 512.277C89.1201 512.34 88.9154 512.344 88.7234 512.287C88.5314 512.231 88.3614 512.117 88.2362 511.96C88.111 511.804 88.0367 511.614 88.0232 511.414L87.5762 504.798C87.5632 504.605 87.4933 504.42 87.3753 504.266C87.2573 504.113 87.0965 503.998 86.9132 503.936L80.6312 501.812C80.4417 501.748 80.2763 501.627 80.1574 501.466C80.0385 501.305 79.9718 501.112 79.9662 500.912C79.9606 500.712 80.0165 500.515 80.1263 500.347C80.2361 500.18 80.3945 500.05 80.5802 499.976L86.7342 497.506C86.9144 497.434 87.069 497.31 87.1783 497.149C87.2877 496.989 87.3468 496.8 87.3482 496.606L87.4272 489.975C87.43 489.775 87.4939 489.58 87.6103 489.418C87.7267 489.255 87.8901 489.132 88.0786 489.065C88.267 488.998 88.4715 488.99 88.6645 489.043C88.8575 489.095 89.0298 489.206 89.1582 489.359L93.4092 494.449C93.5332 494.597 93.6985 494.706 93.8841 494.761C94.0698 494.815 94.2675 494.814 94.4522 494.756L100.783 492.782C100.974 492.723 101.179 492.723 101.37 492.784C101.56 492.844 101.728 492.961 101.85 493.12C101.972 493.278 102.043 493.471 102.052 493.67C102.062 493.87 102.01 494.068 101.904 494.238L98.3772 499.854C98.2735 500.018 98.2209 500.209 98.2263 500.402C98.2316 500.596 98.2946 500.784 98.4072 500.942Z" fill="#171717"/>
<path d="M837.955 552.786L839.656 561.007C839.707 561.255 839.681 561.513 839.581 561.746C839.481 561.978 839.313 562.175 839.098 562.309C838.883 562.443 838.632 562.508 838.379 562.495C838.126 562.482 837.883 562.392 837.682 562.237L831.049 557.093C830.856 556.942 830.622 556.853 830.378 556.835C830.134 556.817 829.89 556.872 829.677 556.993L822.382 561.146C822.162 561.272 821.908 561.327 821.655 561.304C821.403 561.281 821.163 561.181 820.969 561.017C820.775 560.854 820.636 560.634 820.57 560.389C820.505 560.144 820.517 559.884 820.604 559.646L823.445 551.746C823.528 551.515 823.541 551.265 823.482 551.027C823.423 550.79 823.295 550.575 823.114 550.41L816.914 544.756C816.727 544.585 816.597 544.361 816.541 544.114C816.485 543.867 816.506 543.609 816.602 543.374C816.697 543.139 816.862 542.939 817.074 542.801C817.286 542.663 817.535 542.593 817.789 542.601L826.178 542.863C826.423 542.87 826.665 542.805 826.873 542.676C827.081 542.546 827.246 542.358 827.346 542.135L830.807 534.488C830.911 534.257 831.083 534.063 831.301 533.934C831.519 533.804 831.771 533.744 832.023 533.762C832.276 533.78 832.517 533.875 832.714 534.034C832.911 534.193 833.055 534.409 833.125 534.653L835.468 542.713C835.537 542.948 835.673 543.158 835.861 543.315C836.048 543.473 836.278 543.572 836.521 543.599L844.863 544.527C845.115 544.555 845.352 544.659 845.543 544.826C845.733 544.993 845.868 545.214 845.929 545.46C845.99 545.706 845.974 545.965 845.884 546.201C845.793 546.438 845.633 546.641 845.423 546.784L838.481 551.503C838.276 551.64 838.116 551.835 838.022 552.064C837.929 552.292 837.905 552.544 837.955 552.786Z" fill="#171717"/>
<g opacity="0.1">
<path d="M406.071 337.872C401.999 338.201 397.999 338.025 393.982 338.793C389.626 339.64 385.325 340.747 381.101 342.108C372.937 344.708 364.459 347.659 356.836 351.59C341.507 359.64 327.966 370.709 317.027 384.129C305.09 398.525 296.19 415.187 290.863 433.113C285.535 451.039 283.89 469.857 286.027 488.435C287.12 498.948 289.36 509.31 292.707 519.335C294.571 524.709 296.725 529.978 299.159 535.118C301.519 540.118 303.93 545.566 308.148 549.27C314.907 555.209 325.381 549.522 323.268 540.47C322.219 535.97 319.678 532.12 317.691 528C315.975 524.43 314.457 520.768 313.145 517.03C310.29 508.935 308.178 500.597 306.835 492.118C304.42 476.1 305.087 459.768 308.8 444C315.929 413.048 334.328 386.992 359.568 368C366.64 362.68 373.98 357.491 381.988 353.669C385.801 351.85 389.716 350.296 393.678 348.836C398.105 347.206 402.363 345.145 406.878 343.854C410.066 342.942 409.599 337.584 406.068 337.869L406.071 337.872Z" fill="#171717"/>
</g>
<g opacity="0.1">
<path d="M389.471 352.186C386.551 358.637 386.388 366.244 385.221 373.203C383.972 380.652 382.528 388.035 380.605 395.345C376.797 409.821 370.905 423.094 365.159 436.836C361.144 446.436 377.869 451.624 381.128 441.236C383.557 433.498 375.922 427.273 368.965 431.885L380.293 443.214C387.817 429.939 392.843 414.483 396.669 399.77C398.595 392.473 400.115 385.076 401.224 377.611C402.297 370.205 404.118 361.077 401.883 353.805C400.319 348.718 392.018 346.557 389.471 352.183V352.186Z" fill="#171717"/>
</g>
<g opacity="0.1">
<path d="M444.725 206.43C444.61 209.43 445.908 211.982 446.813 214.819C447.813 217.958 448.685 221.131 449.471 224.331C451.188 230.979 452.472 237.731 453.315 244.545C454.043 251.098 454.292 257.696 454.06 264.285C453.835 270.848 452.416 277.385 452.56 283.929C452.64 287.629 457.498 287.984 458.729 284.764C461.148 278.434 461.281 271.006 461.478 264.285C461.679 257.093 461.324 249.897 460.416 242.76C459.625 235.884 458.254 229.088 456.316 222.444C454.687 217.082 452.802 208.708 448.566 204.844C448.246 204.543 447.846 204.34 447.414 204.261C446.982 204.182 446.537 204.229 446.131 204.397C445.725 204.565 445.376 204.847 445.127 205.209C444.878 205.57 444.738 205.996 444.725 206.435V206.43Z" fill="#171717"/>
</g>
</g>
</g>
<defs>
<linearGradient id="paint0_linear_46_97" x1="472.64" y1="409.259" x2="472.64" y2="825.633" gradientUnits="userSpaceOnUse">
<stop stop-color="#4A9FFF"/>
<stop offset="1" stop-color="#2A67F7"/>
</linearGradient>
<linearGradient id="paint1_linear_46_97" x1="476.715" y1="98.5801" x2="476.715" y2="568.153" gradientUnits="userSpaceOnUse">
<stop stop-color="#4A9FFF"/>
<stop offset="1" stop-color="#2A67F7"/>
</linearGradient>
<linearGradient id="paint2_linear_46_97" x1="544.999" y1="862.883" x2="544.999" y2="920.032" gradientUnits="userSpaceOnUse">
<stop stop-color="#4A9FFF"/>
<stop offset="1" stop-color="#2A67F7"/>
</linearGradient>
<linearGradient id="paint3_linear_46_97" x1="519.817" y1="578.176" x2="519.817" y2="609.895" gradientUnits="userSpaceOnUse">
<stop stop-color="#4A9FFF"/>
<stop offset="1" stop-color="#2A67F7"/>
</linearGradient>
<linearGradient id="paint4_linear_46_97" x1="420.273" y1="561.619" x2="420.273" y2="590.093" gradientUnits="userSpaceOnUse">
<stop stop-color="#4A9FFF"/>
<stop offset="1" stop-color="#2A67F7"/>
</linearGradient>
<linearGradient id="paint5_linear_46_97" x1="304.392" y1="858.978" x2="304.392" y2="918.549" gradientUnits="userSpaceOnUse">
<stop stop-color="#4A9FFF"/>
<stop offset="1" stop-color="#2A67F7"/>
</linearGradient>
<clipPath id="clip0_46_97">
<rect width="960" height="960" fill="white"/>
</clipPath>
<clipPath id="clip1_46_97">
<rect width="803" height="884" fill="white" transform="translate(79 38)"/>
</clipPath>
</defs>
</svg>
