<svg width="100" height="100" viewBox="0 0 100 100" fill="none" xmlns="http://www.w3.org/2000/svg">
<rect width="100" height="100" fill="#D9D9D9"/>
<path fill-rule="evenodd" clip-rule="evenodd" d="M19.6484 20.7896C20.4498 18.7856 21.8333 17.0678 23.6204 15.8576C25.4074 14.6474 27.5161 14.0004 29.6744 14H70.3256C72.4839 14.0004 74.5926 14.6474 76.3796 15.8576C78.1667 17.0678 79.5502 18.7856 80.3516 20.7896L83.5736 28.8392C84.4934 31.1401 84.594 33.6872 83.8585 36.0535C83.1231 38.4197 81.5964 40.4611 79.5344 41.8352L78.8 42.332V78.8H82.4C83.3548 78.8 84.2705 79.1793 84.9456 79.8544C85.6207 80.5295 86 81.4452 86 82.4C86 83.3548 85.6207 84.2705 84.9456 84.9456C84.2705 85.6207 83.3548 86 82.4 86H17.6C16.6452 86 15.7295 85.6207 15.0544 84.9456C14.3793 84.2705 14 83.3548 14 82.4C14 81.4452 14.3793 80.5295 15.0544 79.8544C15.7295 79.1793 16.6452 78.8 17.6 78.8H21.2V42.3284L20.4656 41.8352C18.4036 40.4611 16.8769 38.4197 16.1415 36.0535C15.406 33.6872 15.5066 31.1401 16.4264 28.8392L19.6484 20.7896ZM28.4 44.9456V78.8H39.2V64.4C39.2 61.5357 40.3379 58.7886 42.3632 56.7632C44.3886 54.7379 47.1357 53.6 50 53.6C52.8643 53.6 55.6114 54.7379 57.6368 56.7632C59.6621 58.7886 60.8 61.5357 60.8 64.4V78.8H71.6V44.9456C69.512 44.9456 67.424 44.3408 65.6096 43.1312L60.8 39.9272L55.9904 43.1312C54.2164 44.3138 52.132 44.9448 50 44.9448C47.868 44.9448 45.7836 44.3138 44.0096 43.1312L39.2 39.9272L34.3904 43.1312C32.6165 44.314 30.5321 44.9454 28.4 44.9456ZM53.6 78.8V64.4C53.6 63.4452 53.2207 62.5295 52.5456 61.8544C51.8705 61.1793 50.9548 60.8 50 60.8C49.0452 60.8 48.1295 61.1793 47.4544 61.8544C46.7793 62.5295 46.4 63.4452 46.4 64.4V78.8H53.6Z" fill="#4E4E4E"/>
</svg>
